<?xml version="1.0" encoding="UTF-8" standalone="no"?>
<!-- Created with Inkscape (http://www.inkscape.org/) -->

<svg
   xmlns:dc="http://purl.org/dc/elements/1.1/"
   xmlns:cc="http://creativecommons.org/ns#"
   xmlns:rdf="http://www.w3.org/1999/02/22-rdf-syntax-ns#"
   xmlns:svg="http://www.w3.org/2000/svg"
   xmlns="http://www.w3.org/2000/svg"
   xmlns:sodipodi="http://sodipodi.sourceforge.net/DTD/sodipodi-0.dtd"
   xmlns:inkscape="http://www.inkscape.org/namespaces/inkscape"
   width="64px"
   height="64px"
   id="svg3274"
   version="1.1"
   inkscape:version="0.48.4 r9939"
   sodipodi:docname="code.svg">
  <defs
     id="defs3276" />
  <sodipodi:namedview
     id="base"
     pagecolor="#ffffff"
     bordercolor="#666666"
     borderopacity="1.0"
     inkscape:pageopacity="0.0"
     inkscape:pageshadow="2"
     inkscape:zoom="5.5"
     inkscape:cx="8.9090909"
     inkscape:cy="32"
     inkscape:current-layer="layer1"
     showgrid="true"
     inkscape:document-units="px"
     inkscape:grid-bbox="true"
     inkscape:window-width="1280"
     inkscape:window-height="734"
     inkscape:window-x="0"
     inkscape:window-y="27"
     inkscape:window-maximized="1" />
  <metadata
     id="metadata3279">
    <rdf:RDF>
      <cc:Work
         rdf:about="">
        <dc:format>image/svg+xml</dc:format>
        <dc:type
           rdf:resource="http://purl.org/dc/dcmitype/StillImage" />
        <dc:title />
      </cc:Work>
    </rdf:RDF>
  </metadata>
  <g
     id="layer1"
     inkscape:label="Layer 1"
     inkscape:groupmode="layer">
    <path
       sodipodi:type="arc"
       style="fill:#2e343a;fill-opacity:1;stroke:#2e343a;stroke-width:1;stroke-linecap:round;stroke-linejoin:round;stroke-miterlimit:4;stroke-opacity:1;stroke-dasharray:none;stroke-dashoffset:0"
       id="path3063"
       sodipodi:cx="27.181818"
       sodipodi:cy="46.090908"
       sodipodi:rx="20.454546"
       sodipodi:ry="20.454546"
       d="m 47.636364,46.090908 a 20.454546,20.454546 0 1 1 -40.909092,0 20.454546,20.454546 0 1 1 40.909092,0 z"
       transform="matrix(1.5206074,0,0,1.5206074,-9.3328736,-38.086176)" />
    <g
       id="g3295"
       transform="translate(0.37877185,-1.4545477)">
      <path
         sodipodi:nodetypes="cccscccscc"
         id="path3897"
         d="M 17.346915,22.940304 6.9697293,33.45499 17.346367,43.96858 c 0.946618,0.959218 2.481585,0.959218 3.428202,0.0011 0.947165,-0.958669 0.947713,-2.512809 0.0011,-3.472027 l -6.578664,-6.662478 c 0.0038,-0.02293 5.859972,-6.695173 6.579212,-7.423936 0.473308,-0.479334 0.709415,-1.107126 0.709415,-1.735465 0,-0.628339 -0.237202,-1.257227 -0.710511,-1.736561 -0.946618,-0.958122 -2.481584,-0.957574 -3.428206,0.0011 z"
         inkscape:connector-curvature="0"
         style="fill:#ffffff" />
      <path
         sodipodi:nodetypes="cccscccscc"
         id="path3899"
         d="M 45.895542,22.940852 56.272727,33.45499 45.89609,43.96858 c -0.946618,0.959218 -2.481585,0.959218 -3.428202,0.0011 -0.947165,-0.958669 -0.947713,-2.512809 -0.0011,-3.472027 l 6.578664,-6.66193 c -0.0036,0.04139 -5.860531,-6.695232 -6.579759,-7.423936 -0.473309,-0.479335 -0.709416,-1.107126 -0.709416,-1.735465 0,-0.62834 0.237202,-1.257227 0.710511,-1.736561 0.947166,-0.95867 2.482132,-0.958122 3.428754,0.0011 z"
         inkscape:connector-curvature="0"
         style="fill:#ffffff" />
      <path
         id="path3901"
         d="m 37.591821,23.786672 c -0.229532,-0.585062 -0.679833,-1.08357 -1.296121,-1.35638 -1.232027,-0.546167 -2.660718,0.01534 -3.190999,1.253392 l -7.570749,17.563919 c -0.265141,0.619026 -0.255828,1.290095 -0.02629,1.874609 0.229533,0.585063 0.679833,1.083571 1.296121,1.356381 1.232027,0.546167 2.660718,-0.01534 3.190999,-1.253392 l 7.57075,-17.563919 c 0.26514,-0.619027 0.255827,-1.290095 0.02629,-1.87461 z"
         inkscape:connector-curvature="0"
         style="fill:#ffffff" />
    </g>
  </g>
</svg>
