<?xml version="1.0" encoding="UTF-8" standalone="no"?>
<!-- Created with Inkscape (http://www.inkscape.org/) -->

<svg
   xmlns:dc="http://purl.org/dc/elements/1.1/"
   xmlns:cc="http://creativecommons.org/ns#"
   xmlns:rdf="http://www.w3.org/1999/02/22-rdf-syntax-ns#"
   xmlns:svg="http://www.w3.org/2000/svg"
   xmlns="http://www.w3.org/2000/svg"
   xmlns:sodipodi="http://sodipodi.sourceforge.net/DTD/sodipodi-0.dtd"
   xmlns:inkscape="http://www.inkscape.org/namespaces/inkscape"
   width="64px"
   height="64px"
   id="svg3442"
   version="1.1"
   inkscape:version="0.48.4 r9939"
   sodipodi:docname="add.svg">
  <defs
     id="defs3444" />
  <sodipodi:namedview
     id="base"
     pagecolor="#ffffff"
     bordercolor="#666666"
     borderopacity="1.0"
     inkscape:pageopacity="0.0"
     inkscape:pageshadow="2"
     inkscape:zoom="5.5"
     inkscape:cx="8.9090909"
     inkscape:cy="32"
     inkscape:current-layer="layer1"
     showgrid="true"
     inkscape:document-units="px"
     inkscape:grid-bbox="true"
     inkscape:window-width="1280"
     inkscape:window-height="734"
     inkscape:window-x="0"
     inkscape:window-y="27"
     inkscape:window-maximized="1" />
  <metadata
     id="metadata3447">
    <rdf:RDF>
      <cc:Work
         rdf:about="">
        <dc:format>image/svg+xml</dc:format>
        <dc:type
           rdf:resource="http://purl.org/dc/dcmitype/StillImage" />
        <dc:title />
      </cc:Work>
    </rdf:RDF>
  </metadata>
  <g
     id="layer1"
     inkscape:label="Layer 1"
     inkscape:groupmode="layer">
    <path
       sodipodi:type="arc"
       style="fill:#2e343a;fill-opacity:1;stroke:#2e343a;stroke-width:1;stroke-linecap:round;stroke-linejoin:round;stroke-miterlimit:4;stroke-opacity:1;stroke-dasharray:none;stroke-dashoffset:0"
       id="path3063"
       sodipodi:cx="27.181818"
       sodipodi:cy="46.090908"
       sodipodi:rx="20.454546"
       sodipodi:ry="20.454546"
       d="m 47.636364,46.090908 a 20.454546,20.454546 0 1 1 -40.909092,0 20.454546,20.454546 0 1 1 40.909092,0 z"
       transform="matrix(1.5206074,0,0,1.5206074,-9.3328736,-38.086176)" />
    <path
       d="m 50.31818,32.361608 c 0,2.59467 -2.004074,4.698201 -4.476064,4.698201 h -9.021544 v 9.468587 c 0,2.595346 -2.004072,4.698876 -4.476064,4.698876 h -0.04563 c -2.472634,0 -4.476708,-2.10353 -4.476708,-4.698876 v -9.468587 h -9.664287 c -2.47199,0 -4.476063,-2.103531 -4.476063,-4.698201 v -0.04857 c 0,-2.59467 2.004073,-4.698201 4.476063,-4.698201 H 27.82217 V 17.470928 c 0,-2.594669 2.004074,-4.6982 4.476065,-4.6982 h 0.04563 c 2.472633,0 4.476706,2.103531 4.476706,4.6982 v 10.143905 h 9.021543 c 2.47199,0 4.476065,2.103531 4.476065,4.698201 v 0.04857 z"
       id="path3862"
       style="fill:#ffffff"
       inkscape:connector-curvature="0" />
  </g>
</svg>
