<?xml version="1.0" encoding="utf-8"?>
<!-- Generator: Adobe Illustrator 16.0.0, SVG Export Plug-In . SVG Version: 6.00 Build 0)  -->
<!DOCTYPE svg PUBLIC "-//W3C//DTD SVG 1.1//EN" "http://www.w3.org/Graphics/SVG/1.1/DTD/svg11.dtd">
<svg version="1.1"
	 id="svg3442" xmlns:dc="http://purl.org/dc/elements/1.1/" xmlns:cc="http://creativecommons.org/ns#" xmlns:rdf="http://www.w3.org/1999/02/22-rdf-syntax-ns#" xmlns:svg="http://www.w3.org/2000/svg" xmlns:sodipodi="http://sodipodi.sourceforge.net/DTD/sodipodi-0.dtd" xmlns:inkscape="http://www.inkscape.org/namespaces/inkscape" sodipodi:docname="add.svg" inkscape:version="0.48.4 r9939"
	 xmlns="http://www.w3.org/2000/svg" xmlns:xlink="http://www.w3.org/1999/xlink" x="0px" y="0px" width="64px" height="64px"
	 viewBox="0 0 64 64" enable-background="new 0 0 64 64" xml:space="preserve">
<sodipodi:namedview  showgrid="true" inkscape:cy="32" inkscape:cx="8.9090909" inkscape:zoom="5.5" borderopacity="1.0" bordercolor="#666666" pagecolor="#ffffff" id="base" inkscape:window-maximized="1" inkscape:window-y="27" inkscape:window-x="0" inkscape:current-layer="layer1" inkscape:pageopacity="0.0" inkscape:window-height="734" inkscape:window-width="1280" inkscape:grid-bbox="true" inkscape:document-units="px" inkscape:pageshadow="2">
	</sodipodi:namedview>
<g id="layer1" inkscape:label="Layer 1" inkscape:groupmode="layer">
	
		<path id="path3063" sodipodi:ry="20.454546" sodipodi:rx="20.454546" sodipodi:cy="46.090908" sodipodi:cx="27.181818" sodipodi:type="arc" fill="#4D5F3D" d="
		M63.104,32c0.002,17.178-13.922,31.105-31.1,31.107S0.899,49.186,0.896,32.008c0-0.003,0-0.005,0-0.008
		C0.895,14.822,14.818,0.895,31.996,0.893C49.174,0.89,63.102,14.814,63.104,31.992C63.104,31.995,63.104,31.997,63.104,32z"/>
	<path id="path3862" inkscape:connector-curvature="0" fill="#FFFFFF" d="M50.318,32.362c0,2.594-2.004,4.698-4.477,4.698H36.82
		v9.469c0,2.595-2.004,4.699-4.476,4.699h-0.046c-2.473,0-4.477-2.104-4.477-4.699V37.06h-9.665c-2.472,0-4.476-2.104-4.476-4.698
		v-0.049c0-2.595,2.004-4.698,4.476-4.698h9.665V17.471c0-2.594,2.004-4.698,4.476-4.698h0.045c2.473,0,4.477,2.104,4.477,4.698
		v10.144h9.021c2.473,0,4.477,2.104,4.477,4.698V32.362L50.318,32.362z"/>
</g>
</svg>
