<?xml version="1.0" encoding="utf-8"?>
<!-- Generator: Adobe Illustrator 16.0.0, SVG Export Plug-In . SVG Version: 6.00 Build 0)  -->
<!DOCTYPE svg PUBLIC "-//W3C//DTD SVG 1.1//EN" "http://www.w3.org/Graphics/SVG/1.1/DTD/svg11.dtd">
<svg version="1.1"
	 id="svg3274" xmlns:dc="http://purl.org/dc/elements/1.1/" xmlns:cc="http://creativecommons.org/ns#" xmlns:rdf="http://www.w3.org/1999/02/22-rdf-syntax-ns#" xmlns:svg="http://www.w3.org/2000/svg" xmlns:sodipodi="http://sodipodi.sourceforge.net/DTD/sodipodi-0.dtd" xmlns:inkscape="http://www.inkscape.org/namespaces/inkscape" sodipodi:docname="code.svg" inkscape:version="0.48.4 r9939"
	 xmlns="http://www.w3.org/2000/svg" xmlns:xlink="http://www.w3.org/1999/xlink" x="0px" y="0px" width="64px" height="64px"
	 viewBox="0 0 64 64" enable-background="new 0 0 64 64" xml:space="preserve">
<sodipodi:namedview  showgrid="true" inkscape:cy="32" inkscape:cx="8.9090909" inkscape:zoom="5.5" borderopacity="1.0" bordercolor="#666666" pagecolor="#ffffff" id="base" inkscape:window-maximized="1" inkscape:window-y="27" inkscape:window-x="0" inkscape:current-layer="layer1" inkscape:pageopacity="0.0" inkscape:window-height="734" inkscape:window-width="1280" inkscape:grid-bbox="true" inkscape:document-units="px" inkscape:pageshadow="2">
	</sodipodi:namedview>
<g id="layer1" inkscape:label="Layer 1" inkscape:groupmode="layer">
	
		<path id="path3063" sodipodi:ry="20.454546" sodipodi:rx="20.454546" sodipodi:cy="46.090908" sodipodi:cx="27.181818" sodipodi:type="arc" fill="#4D4238" d="
		M63.104,32c0.002,17.178-13.922,31.105-31.1,31.107S0.899,49.186,0.896,32.008c0-0.003,0-0.005,0-0.008
		C0.895,14.822,14.818,0.895,31.996,0.893C49.174,0.89,63.102,14.814,63.104,31.992C63.104,31.995,63.104,31.997,63.104,32z"/>
	<g id="g3295" transform="translate(0.37877185,-1.4545477)">
		<path id="path3897" inkscape:connector-curvature="0" sodipodi:nodetypes="cccscccscc" fill="#FFFFFF" d="M17.347,22.94
			L6.97,33.455l10.376,10.513c0.947,0.959,2.481,0.959,3.428,0.002c0.947-0.959,0.948-2.514,0.001-3.473l-6.579-6.662
			c0.004-0.023,5.86-6.695,6.579-7.424c0.474-0.479,0.709-1.107,0.709-1.735s-0.237-1.257-0.71-1.736
			C19.829,21.981,18.294,21.982,17.347,22.94z"/>
		<path id="path3899" inkscape:connector-curvature="0" sodipodi:nodetypes="cccscccscc" fill="#FFFFFF" d="M45.896,22.941
			l10.377,10.514L45.897,43.968c-0.947,0.959-2.482,0.959-3.429,0.002c-0.947-0.959-0.948-2.514-0.001-3.473l6.578-6.662
			c-0.004,0.042-5.86-6.695-6.58-7.424c-0.473-0.479-0.709-1.107-0.709-1.735s0.237-1.257,0.711-1.736
			C43.414,21.981,44.949,21.982,45.896,22.941z"/>
		<path id="path3901" inkscape:connector-curvature="0" fill="#FFFFFF" d="M37.592,23.787c-0.229-0.585-0.68-1.083-1.297-1.356
			c-1.231-0.546-2.66,0.016-3.19,1.253l-7.571,17.564c-0.265,0.619-0.256,1.29-0.026,1.875c0.23,0.585,0.68,1.084,1.296,1.355
			c1.232,0.547,2.661-0.015,3.191-1.253l7.571-17.563C37.83,25.042,37.821,24.371,37.592,23.787z"/>
	</g>
</g>
</svg>
