<?xml version="1.0" encoding="UTF-8" standalone="no"?>
<svg
   xmlns:dc="http://purl.org/dc/elements/1.1/"
   xmlns:cc="http://creativecommons.org/ns#"
   xmlns:rdf="http://www.w3.org/1999/02/22-rdf-syntax-ns#"
   xmlns:svg="http://www.w3.org/2000/svg"
   xmlns="http://www.w3.org/2000/svg"
   xmlns:sodipodi="http://sodipodi.sourceforge.net/DTD/sodipodi-0.dtd"
   xmlns:inkscape="http://www.inkscape.org/namespaces/inkscape"
   height="20px"
   version="1.1"
   viewBox="0 0 20 20"
   width="20px"
   id="svg2"
   inkscape:version="0.48.4 r9939"
   sodipodi:docname="help.svg">
  <metadata
     id="metadata16">
    <rdf:RDF>
      <cc:Work
         rdf:about="">
        <dc:format>image/svg+xml</dc:format>
        <dc:type
           rdf:resource="http://purl.org/dc/dcmitype/StillImage" />
      </cc:Work>
    </rdf:RDF>
  </metadata>
  <sodipodi:namedview
     pagecolor="#ffffff"
     bordercolor="#666666"
     borderopacity="1"
     objecttolerance="10"
     gridtolerance="10"
     guidetolerance="10"
     inkscape:pageopacity="0"
     inkscape:pageshadow="2"
     inkscape:window-width="640"
     inkscape:window-height="480"
     id="namedview14"
     showgrid="false"
     inkscape:zoom="11.8"
     inkscape:cx="10"
     inkscape:cy="10"
     inkscape:window-x="603"
     inkscape:window-y="65"
     inkscape:window-maximized="0"
     inkscape:current-layer="svg2" />
  <title
     id="title4" />
  <desc
     id="desc6" />
  <defs
     id="defs8" />
  <g
     fill="none"
     fill-rule="evenodd"
     id="Page-1"
     stroke="none"
     stroke-width="1"
     style="fill:#808080">
    <g
       fill="#000000"
       id="Core"
       transform="translate(-422.000000, -254.000000)"
       style="fill:#808080">
      <g
         id="help"
         transform="translate(422.000000, 254.000000)"
         style="fill:#808080">
        <path
           d="M10,0 C4.5,0 0,4.5 0,10 C0,15.5 4.5,20 10,20 C15.5,20 20,15.5 20,10 C20,4.5 15.5,0 10,0 L10,0 Z M11,17 L9,17 L9,15 L11,15 L11,17 L11,17 Z M13.1,9.3 L12.2,10.2 C11.4,10.9 11,11.5 11,13 L9,13 L9,12.5 C9,11.4 9.4,10.4 10.2,9.7 L11.4,8.4 C11.8,8.1 12,7.6 12,7 C12,5.9 11.1,5 10,5 C8.9,5 8,5.9 8,7 L6,7 C6,4.8 7.8,3 10,3 C12.2,3 14,4.8 14,7 C14,7.9 13.6,8.7 13.1,9.3 L13.1,9.3 Z"
           id="Shape"
           style="fill:#808080" />
      </g>
    </g>
  </g>
</svg>
